<svg width="148" height="148" viewBox="0 0 148 148" fill="none" xmlns="http://www.w3.org/2000/svg">
<g opacity="0.2" clip-path="url(#clip0_396_93)">
<path d="M132.049 41.1113H15.9515C13.9017 41.1113 11.9358 41.9256 10.4864 43.3751C9.03695 44.8245 8.22266 46.7904 8.22266 48.8402V123.827C8.22266 125.877 9.03695 127.843 10.4864 129.292C11.9358 130.741 13.9017 131.556 15.9515 131.556H132.049C134.099 131.556 136.065 130.741 137.514 129.292C138.964 127.843 139.778 125.877 139.778 123.827V48.8402C139.778 46.7904 138.964 44.8245 137.514 43.3751C136.065 41.9256 134.099 41.1113 132.049 41.1113ZM133.556 125.334H14.4449V47.3336H133.556V125.334Z" fill="#616872"/>
<path d="M35.1927 79.9611C37.632 79.9611 40.0165 79.2378 42.0447 77.8826C44.0729 76.5274 45.6537 74.6012 46.5872 72.3475C47.5207 70.0939 47.7649 67.6141 47.2891 65.2217C46.8132 62.8292 45.6385 60.6316 43.9137 58.9068C42.1888 57.1819 39.9913 56.0073 37.5988 55.5314C35.2064 55.0555 32.7266 55.2998 30.4729 56.2333C28.2193 57.1667 26.2931 58.7475 24.9379 60.7757C23.5827 62.8039 22.8594 65.1885 22.8594 67.6278C22.8594 70.8988 24.1588 74.0358 26.4717 76.3488C28.7847 78.6617 31.9217 79.9611 35.1927 79.9611ZM35.1927 61.05C36.5002 61.0173 37.7877 61.3751 38.8908 62.0777C39.994 62.7803 40.8626 63.7958 41.3858 64.9945C41.9089 66.1932 42.0629 67.5206 41.8279 68.8073C41.593 70.0939 40.9799 71.2812 40.0668 72.2177C39.1538 73.1541 37.9824 73.7971 36.7021 74.0645C35.4219 74.332 34.091 74.2116 32.8794 73.719C31.6679 73.2263 30.6307 72.3837 29.9004 71.2987C29.1701 70.2137 28.7798 68.9357 28.7794 67.6278C28.7788 65.9114 29.4492 64.2627 30.6475 63.0338C31.8457 61.8048 33.4768 61.0929 35.1927 61.05Z" fill="#616872"/>
<path d="M21.64 126L57.1447 90.4445L70.218 103.518L48.7991 126H57.0213L97.5158 84.4423L134.5 121.5V113.278L99.4891 78.1112C98.9424 77.5689 98.2036 77.2646 97.4336 77.2646C96.6635 77.2646 95.9247 77.5689 95.378 78.1112L74.1647 99.3245L59.0769 84.2779C58.5302 83.7356 57.7914 83.4313 57.0213 83.4313C56.2513 83.4313 55.5125 83.7356 54.9658 84.2779L13.5 126H21.64Z" fill="#616872"/>
<path d="M123.909 12.3333C123.909 11.2429 123.476 10.1973 122.705 9.42628C121.934 8.6553 120.888 8.22217 119.798 8.22217H29.3533C28.263 8.22217 27.2173 8.6553 26.4463 9.42628C25.6753 10.1973 25.2422 11.2429 25.2422 12.3333V14.4444H123.909V12.3333Z" fill="#616872"/>
<path d="M132.049 28.7776C132.049 27.6873 131.615 26.6416 130.844 25.8706C130.074 25.0996 129.028 24.6665 127.938 24.6665H21.0486C19.9583 24.6665 18.9126 25.0996 18.1416 25.8706C17.3706 26.6416 16.9375 27.6873 16.9375 28.7776V30.8887H132.049V28.7776Z" fill="#616872"/>
</g>
<defs>
<clipPath id="clip0_396_93">
<rect width="148" height="148" fill="white"/>
</clipPath>
</defs>
</svg>
